<svg width="226" height="33" viewBox="0 0 226 33" fill="none" xmlns="http://www.w3.org/2000/svg">
<path d="M53.8574 23.3555C52.5326 23.8568 51.0286 24.1074 49.3457 24.1074C43.8314 24.1074 41.0742 21.4398 41.0742 16.1045C41.0742 11.0557 43.8314 8.53125 49.3457 8.53125C51.0286 8.53125 52.5326 8.7819 53.8574 9.2832V11.8613C52.5326 11.2884 51.1003 11.002 49.5605 11.002C45.8724 11.002 44.0283 12.7028 44.0283 16.1045C44.0283 19.7926 45.8724 21.6367 49.5605 21.6367C51.1003 21.6367 52.5326 21.3503 53.8574 20.7773V23.3555ZM56.543 24V8.63867H59.3896V14.9766H66.9629V8.63867H69.8096V24H66.9629V17.4473H59.3896V24H56.543ZM74.6221 24H71.7002L78.2207 8.63867H81.2822L87.9424 24H84.8809L83.1299 19.8105H78.0273L79.0049 17.3398H82.0986L79.6816 11.5713L74.6221 24ZM89.8223 23.9785V8.63867H96.8047C99.9414 8.63867 101.51 10.0101 101.51 12.7529C101.51 14.6077 100.289 16.1439 97.8467 17.3613L102.713 24H99.125L94.4521 17.3076V16.0078C97.1735 15.5423 98.5342 14.486 98.5342 12.8389C98.5342 11.7074 97.8968 11.1416 96.6221 11.1416H92.7227V23.9785H89.8223ZM106.913 8.63867V24H104.066V8.63867H106.913ZM120.19 8.63867V11.1094H115.786V24H112.939V11.1094H108.535V8.63867H120.19ZM120.47 8.63867H123.531L127.85 16.04L131.91 8.63867H134.864L129.214 18.6289V24H126.367V18.6289L120.47 8.63867ZM146.627 21.5293C149.814 21.5293 151.407 19.653 151.407 15.9004C151.407 12.7064 149.814 11.1094 146.627 11.1094H143.458V21.5293H146.627ZM140.611 24V8.63867H146.627C151.712 8.63867 154.254 11.0592 154.254 15.9004C154.254 21.3001 151.712 24 146.627 24H140.611ZM159.528 8.63867V24H156.682V8.63867H159.528ZM162.762 24V8.63867H165.608L173.719 19.832V8.63867H176.458V24H173.611L165.501 12.5703V24H162.762ZM179.691 24V8.63867H182.538L190.648 19.832V8.63867H193.388V24H190.541L182.431 12.5703V24H179.691ZM207.138 8.63867V11.0879H199.446V14.9551H206.772V17.501H199.414V21.5293H207.288V24H196.621V8.63867H207.138ZM209.92 23.9785V8.63867H216.902C220.039 8.63867 221.607 10.0101 221.607 12.7529C221.607 14.6077 220.386 16.1439 217.944 17.3613L222.811 24H219.223L214.55 17.3076V16.0078C217.271 15.5423 218.632 14.486 218.632 12.8389C218.632 11.7074 217.994 11.1416 216.72 11.1416H212.82V23.9785H209.92Z" fill="white"/>
<path d="M14 26.5C16.7848 26.5 19.4555 25.3938 21.4246 23.4246C23.3938 21.4555 24.5 18.7848 24.5 16H3.5C3.5 18.7848 4.60625 21.4555 6.57538 23.4246C8.54451 25.3938 11.2152 26.5 14 26.5Z" stroke="white" stroke-width="2" stroke-linecap="round" stroke-linejoin="round"/>
<path d="M8.16675 26.5H19.8334" stroke="white" stroke-width="2" stroke-linecap="round" stroke-linejoin="round"/>
<path d="M22.75 16L25.6667 9" stroke="white" stroke-width="2" stroke-linecap="round" stroke-linejoin="round"/>
<path d="M18.9584 5.5C19.2734 5.61667 19.8917 6.11833 19.8334 7.08667C19.7634 8.055 18.7484 8.48667 18.6667 9.44333C18.6084 10.3533 19.0634 10.89 19.5184 11.3333" stroke="white" stroke-width="2" stroke-linecap="round" stroke-linejoin="round"/>
<path d="M13.1251 5.5C13.4401 5.61667 14.0584 6.11833 13.9884 7.08667C13.9301 8.055 12.9034 8.48667 12.8451 9.44333C12.7751 10.3533 13.2301 10.89 13.6851 11.3333" stroke="white" stroke-width="2" stroke-linecap="round" stroke-linejoin="round"/>
<path d="M7.29161 5.5C7.60661 5.61667 8.22494 6.11833 8.16661 7.08667C8.09661 8.055 7.08161 8.48667 6.99994 9.44333C6.94161 10.3533 7.39661 10.89 7.86327 11.3333" stroke="white" stroke-width="2" stroke-linecap="round" stroke-linejoin="round"/>
</svg>
